<svg width="54" height="63" viewBox="0 0 54 63" fill="none" xmlns="http://www.w3.org/2000/svg">
<path d="M27 36C23.0218 36 19.2064 34.4196 16.3934 31.6066C13.5804 28.7936 12 24.9782 12 21H18C18 23.3869 18.9482 25.6761 20.636 27.364C22.3239 29.0518 24.6131 30 27 30C29.3869 30 31.6761 29.0518 33.364 27.364C35.0518 25.6761 36 23.3869 36 21H42C42 24.9782 40.4196 28.7936 37.6066 31.6066C34.7936 34.4196 30.9782 36 27 36ZM27 6C29.3869 6 31.6761 6.94821 33.364 8.63604C35.0518 10.3239 36 12.6131 36 15H18C18 12.6131 18.9482 10.3239 20.636 8.63604C22.3239 6.94821 24.6131 6 27 6ZM48 15H42C42 13.0302 41.612 11.0796 40.8582 9.25975C40.1044 7.43986 38.9995 5.78628 37.6066 4.3934C36.2137 3.00052 34.5601 1.89563 32.7403 1.14181C30.9204 0.387987 28.9698 0 27 0C23.0218 0 19.2064 1.58035 16.3934 4.3934C13.5804 7.20644 12 11.0218 12 15H6C2.67 15 0 17.67 0 21V57C0 58.5913 0.632141 60.1174 1.75736 61.2426C2.88258 62.3679 4.4087 63 6 63H48C49.5913 63 51.1174 62.3679 52.2426 61.2426C53.3679 60.1174 54 58.5913 54 57V21C54 17.67 51.3 15 48 15Z" fill="#1E7AB3"/>
</svg>
