<svg width="63" height="63" viewBox="0 0 63 63" fill="none" xmlns="http://www.w3.org/2000/svg">
<path d="M31.5 0C35.6772 0 39.6832 1.65937 42.6369 4.61307C45.5906 7.56677 47.25 11.5728 47.25 15.75C47.25 19.9272 45.5906 23.9332 42.6369 26.8869C39.6832 29.8406 35.6772 31.5 31.5 31.5C27.3228 31.5 23.3168 29.8406 20.3631 26.8869C17.4094 23.9332 15.75 19.9272 15.75 15.75C15.75 11.5728 17.4094 7.56677 20.3631 4.61307C23.3168 1.65937 27.3228 0 31.5 0ZM31.5 39.375C48.9038 39.375 63 46.4231 63 55.125V63H0V55.125C0 46.4231 14.0962 39.375 31.5 39.375Z" fill="#1E7AB3"/>
</svg>
